<?xml version="1.0" encoding="iso-8859-1"?>
<!-- Uploaded to: SVG Repo, www.svgrepo.com, Generator: SVG Repo Mixer Tools -->
<svg fill="#000000" version="1.1" id="Layer_1" xmlns="http://www.w3.org/2000/svg" xmlns:xlink="http://www.w3.org/1999/xlink" 
	 viewBox="0 0 512.001 512.001" xml:space="preserve">
<g>
	<g>
		<polygon points="87.766,0 87.766,80.017 119.773,80.017 119.773,64.013 103.769,64.013 103.769,16.003 455.846,16.003 
			455.846,64.013 439.843,64.013 439.843,80.017 471.849,80.017 471.849,0 		"/>
	</g>
</g>
<g>
	<g>
		<rect x="175.856" y="87.743" width="104.143" height="15.779"/>
	</g>
</g>
<g>
	<g>
		<rect x="175.856" y="120.354" width="24.195" height="15.779"/>
	</g>
</g>
<g>
	<g>
		<rect x="215.83" y="120.354" width="15.779" height="15.779"/>
	</g>
</g>
<g>
	<g>
		<rect x="240.025" y="120.354" width="15.779" height="15.779"/>
	</g>
</g>
<g>
	<g>
		<rect x="264.22" y="120.354" width="15.779" height="15.779"/>
	</g>
</g>
<g>
	<g>
		<rect x="175.856" y="160.328" width="208.287" height="15.779"/>
	</g>
</g>
<g>
	<g>
		<rect x="175.856" y="191.887" width="208.287" height="15.779"/>
	</g>
</g>
<g>
	<g>
		<rect x="175.856" y="224.497" width="208.287" height="15.779"/>
	</g>
</g>
<g>
	<g>
		<rect x="359.948" y="256.056" width="24.195" height="15.779"/>
	</g>
</g>
<g>
	<g>
		<rect x="359.948" y="288.666" width="24.195" height="15.779"/>
	</g>
</g>
<g>
	<g>
		<rect x="359.948" y="320.225" width="24.195" height="15.779"/>
	</g>
</g>
<g>
	<g>
		<rect x="87.492" y="296.03" width="168.312" height="15.779"/>
	</g>
</g>
<g>
	<g>
		<rect x="167.44" y="328.641" width="24.195" height="15.779"/>
	</g>
</g>
<g>
	<g>
		<rect x="207.415" y="328.641" width="48.39" height="15.779"/>
	</g>
</g>
<g>
	<g>
		<rect x="207.415" y="360.199" width="48.39" height="15.779"/>
	</g>
</g>
<g>
	<g>
		<rect x="167.44" y="360.199" width="24.195" height="15.779"/>
	</g>
</g>
<g>
	<g>
		<rect x="87.492" y="415.953" width="79.948" height="15.779"/>
	</g>
</g>
<g>
	<g>
		<rect x="240.025" y="415.953" width="15.779" height="15.779"/>
	</g>
</g>
<g>
	<g>
		<rect x="215.83" y="415.953" width="15.779" height="15.779"/>
	</g>
</g>
<g>
	<g>
		<rect x="191.635" y="415.953" width="15.779" height="15.779"/>
	</g>
</g>
<g>
	<g>
		<rect x="87.492" y="455.927" width="168.312" height="15.779"/>
	</g>
</g>
<g>
	<g>
		<path d="M416.076,416.203c-0.17,0-0.339,0.012-0.509,0.013l-103.991-0.262l-0.039,15.779l69.019,0.174
			c-7.758,8.511-12.493,19.811-12.493,32.194c0,17.711-14.354,32.119-31.996,32.119c-0.072,0-0.142-0.005-0.214-0.005v-0.005h-0.229
			c-17.371-0.241-31.43-14.547-31.43-32.108V288.062c0-9.036,6.931-16.116,15.779-16.116s15.779,7.079,15.779,16.116v56.012
			c0,12.277,4.644,23.486,12.26,31.972l-36.442-0.067l-0.028,15.779c0,0,71.14,0.215,72.073,0.215
			c26.392,0,47.864-21.487,47.864-47.898V47.77h8.416V31.991H120.101V47.77h7.674v200.283h16.003V47.77H415.7v296.305
			c0,17.711-14.394,32.119-32.085,32.119c-0.595,0-1.187-0.019-1.775-0.052v-0.034l-0.45-0.001
			c-16.657-1.149-29.861-15.072-29.861-32.033v-56.012c0-17.587-14.157-31.895-31.559-31.895v-0.11H71.762
			c-17.43,0-31.61,14.357-31.61,32.006v176.039c0,12.794,4.933,24.767,13.89,33.714c8.952,8.942,20.93,13.867,33.714,13.867
			l247.866,0.307c0.148,0.001,0.294,0.012,0.443,0.012c26.343,0,47.776-21.487,47.776-47.899c0-17.539,14.183-31.831,31.721-32.107
			l0.353,0.001v-0.009c0.054,0,0.106-0.004,0.16-0.004c17.774,0,32.235,14.409,32.235,32.119v16.021H384.14v15.779h79.948v-31.801
			C464.089,437.69,442.55,416.203,416.076,416.203z M87.766,495.902c-17.851,0-31.834-13.969-31.834-31.801V288.062
			c0-8.947,7.102-16.226,15.831-16.226h221.055c-2.794,4.757-4.405,10.304-4.405,16.226v176.039
			c0,12.322,4.655,23.568,12.287,32.065L87.766,495.902z"/>
	</g>
</g>
</svg>